<svg width="40" height="32" viewBox="0 0 40 32" fill="none" xmlns="http://www.w3.org/2000/svg">
<path id="Vector" fill-rule="evenodd" clip-rule="evenodd" d="M5.02459 2.86228C5.08666 2.86843 5.13412 2.87474 5.16957 2.88036C5.18026 2.90592 5.19299 2.93986 5.20706 2.984C5.29266 3.25261 5.35335 3.63776 5.45626 4.33167L7.01197 14.8209C7.19521 16.0567 7.35228 17.1163 7.62103 17.9595C7.90885 18.8626 8.37476 19.6948 9.32783 20.3516C10.2796 21.0075 11.3991 21.2692 12.5886 21.3867C13.7017 21.4967 15.0803 21.4967 16.6919 21.4967H29.3437C30.8791 21.4967 32.1955 21.4967 33.2637 21.3938C34.4066 21.2836 35.4842 21.0388 36.4186 20.4272C37.3542 19.8149 37.8457 19.0316 38.1757 18.1755C38.4833 17.3771 38.6999 16.3726 38.9522 15.2036L39.3293 13.4557C39.6728 11.8629 39.9628 10.5192 39.9966 9.43961C40.0324 8.29638 39.7957 7.19174 38.7793 6.2648C37.7648 5.33956 36.3988 4.97963 34.9388 4.81956C33.5573 4.66804 31.7959 4.66809 29.7037 4.66813L9.16407 4.66815L9.05485 3.93167C8.96727 3.3405 8.88296 2.77133 8.73432 2.30489C8.56679 1.77922 8.26845 1.20971 7.60183 0.750334C6.93646 0.291827 6.17386 0.128947 5.48339 0.0606624C4.86861 -0.000137601 4.12875 -6.46412e-05 3.35746 4.69211e-06L1.81693 2.2494e-05C0.823621 2.2494e-05 0 0.624253 0 1.41213C0 2.2 0.823621 2.82424 1.81693 2.82424H3.25919C4.16237 2.82424 4.66699 2.82692 5.02459 2.86228ZM10.6085 14.4073L9.58296 7.49236H29.5677C31.8304 7.49236 33.3335 7.49568 34.4313 7.61606C35.4795 7.73101 35.8211 7.92111 36.0135 8.09671C36.2044 8.27065 36.3893 8.55773 36.3637 9.37099C36.3371 10.2252 36.0948 11.3689 35.7226 13.0941L35.3868 14.6502C35.1113 15.9283 34.9291 16.7564 34.6946 17.3652C34.4748 17.9351 34.2693 18.1417 34.0777 18.267C33.8853 18.3931 33.5842 18.517 32.8159 18.5911C31.9982 18.67 30.9084 18.6725 29.232 18.6725H16.8076C15.05 18.6725 13.9041 18.6699 13.0474 18.5851C12.2413 18.5054 11.933 18.3723 11.7387 18.2384C11.5457 18.1054 11.3415 17.8866 11.1483 17.2804C10.9424 16.6343 10.8087 15.757 10.6085 14.4073ZM13.4354 24.5077C10.8492 24.5077 8.75272 26.1849 8.75272 28.2539C8.75272 30.3228 10.8492 32 13.4354 32C16.0216 32 18.1181 30.3228 18.1181 28.2539C18.1181 26.1849 16.0216 24.5077 13.4354 24.5077ZM12.283 28.2539C12.283 27.7447 12.799 27.3319 13.4354 27.3319C14.0719 27.3319 14.5879 27.7447 14.5879 28.2539C14.5879 28.763 14.0719 29.1758 13.4354 29.1758C12.799 29.1758 12.283 28.763 12.283 28.2539ZM30.9408 24.5077C28.3546 24.5077 26.2582 26.1849 26.2582 28.2539C26.2582 30.3228 28.3546 32 30.9408 32C33.5271 32 35.6235 30.3228 35.6235 28.2539C35.6235 26.1849 33.5271 24.5077 30.9408 24.5077ZM29.7884 28.2539C29.7884 27.7447 30.3044 27.3319 30.9408 27.3319C31.5773 27.3319 32.0933 27.7447 32.0933 28.2539C32.0933 28.763 31.5773 29.1758 30.9408 29.1758C30.3044 29.1758 29.7884 28.763 29.7884 28.2539Z" fill="white"/>
</svg>
