<svg width="80" height="80" viewBox="0 0 80 80" fill="none" xmlns="http://www.w3.org/2000/svg">
<path id="Vector" fill-rule="evenodd" clip-rule="evenodd" d="M16.4557 17.2152C16.4557 7.33912 27.4785 0 39.9997 0C52.521 0 63.5435 7.33912 63.5435 17.2152C63.5435 27.0912 52.521 34.4304 39.9997 34.4304C27.4785 34.4304 16.4557 27.0912 16.4557 17.2152ZM39.9997 6.07596C30.6211 6.07596 23.8907 11.4315 23.8907 17.2152C23.8907 22.9988 30.6211 28.3544 39.9997 28.3544C49.3785 28.3544 56.109 22.9988 56.109 17.2152C56.109 11.4315 49.3785 6.07596 39.9997 6.07596ZM14.6632 44.834C30.2167 36.9668 49.783 36.9668 65.3365 44.834C74.4475 49.4424 80 57.6408 80 66.472V68.5276C80 69.3356 80.0005 69.9796 79.9235 70.5588C79.27 75.4912 74.5625 79.3944 68.588 79.9368C67.8865 80.0004 67.1075 80 66.1315 80H13.8683C12.8926 80 12.1135 80.0004 11.4121 79.9368C5.43739 79.3944 0.729786 75.4912 0.0762862 70.5588C-0.000463822 69.9796 -0.000263658 69.3356 3.63425e-05 68.5272V66.472C3.63425e-05 57.6408 5.55269 49.4424 14.6632 44.834ZM61.4235 50.1096C48.2715 43.4568 31.7285 43.4568 18.5764 50.1096C11.6934 53.5912 7.49164 59.7892 7.49164 66.472V68.3612C7.49164 69.4132 7.49729 69.6884 7.52344 69.886C7.79624 71.9452 9.75844 73.5628 12.2307 73.7872C12.4675 73.8088 12.7984 73.8132 14.0698 73.8132H65.93C67.2015 73.8132 67.5325 73.8088 67.7695 73.7872C70.2415 73.5628 72.2035 71.9452 72.4765 69.886C72.5025 69.6884 72.5085 69.4132 72.5085 68.3612V66.472C72.5085 59.7892 68.3065 53.5912 61.4235 50.1096Z" fill="#201F29"/>
</svg>
